<svg version="1.2" xmlns="http://www.w3.org/2000/svg" viewBox="0 0 200 200" width="200" height="200"><style>.a{fill:#010101}</style><path fill-rule="evenodd" class="a" d="m179.6 91.2l-35.4 35.3c-19.5 19.5-51.2 19.5-70.7 0-3.1-3.1-5.5-6.5-7.6-10.1l16.4-16.4c0.8-0.8 1.8-1.2 2.7-1.8 1.1 3.9 3.1 7.6 6.2 10.6 9.7 9.8 25.6 9.8 35.3 0l35.4-35.3c9.7-9.8 9.7-25.6 0-35.4-9.8-9.7-25.6-9.7-35.4 0l-12.6 12.6c-10.2-4-21.2-5-31.9-3.5l26.8-26.7c19.6-19.6 51.2-19.6 70.8 0 19.5 19.5 19.5 51.1 0 70.7zm-61.6 61.6l-26.8 26.8c-19.6 19.5-51.2 19.5-70.7 0-19.6-19.6-19.6-51.2 0-70.8l35.3-35.3c19.5-19.5 51.2-19.5 70.7 0 3.1 3.1 5.5 6.5 7.6 10.1l-16.4 16.4c-0.8 0.8-1.8 1.2-2.7 1.8-1.1-3.9-3.1-7.6-6.2-10.6-9.7-9.8-25.6-9.8-35.3 0l-35.4 35.3c-9.7 9.8-9.7 25.6 0 35.4 9.8 9.7 25.6 9.7 35.4 0l12.6-12.6c10.2 4 21.2 5 31.9 3.5z"/></svg>